{"glyphs":{":":{"x_min":0,"x_max":167,"ha":167,"o":"m 81 176 q 104 176 104 154 q 104 141 94 131 q 83 121 71 121 q 48 121 48 143 q 48 156 58 166 q 68 176 81 176 z m 35 56 q 57 56 57 34 q 57 21 47 11 q 37 0 24 0 q 1 0 1 23 q 1 36 11 46 q 21 56 35 56 z"},"$":{"x_min":0,"x_max":427,"ha":427,"o":"m 549 653 l 545 643 q 527 596 497 525 l 490 511 l 473 511 q 492 558 492 578 q 492 608 442 608 q 348 608 283 557 q 218 505 218 430 q 218 395 234 367 q 250 338 293 299 l 295 307 l 311 347 q 339 426 339 452 q 339 479 293 479 l 293 494 l 300 494 l 343 494 l 388 498 q 393 498 396 498 l 394 491 q 362 393 318 290 l 314 282 l 319 277 l 349 247 q 390 204 390 165 q 390 89 303 28 q 241 -17 162 -17 l 110 -91 l 91 -91 l 141 -16 q 16 2 16 104 q 16 169 85 256 l 91 263 q 111 260 123 260 l 133 260 l 140 260 l 137 253 q 129 233 119 212 l 116 205 q 109 204 108 204 l 88 206 q 84 206 78 204 q 41 189 41 133 q 41 88 72 56 q 103 23 157 13 q 204 84 261 222 l 266 233 l 258 241 q 209 284 191 316 q 173 348 173 388 q 173 442 207 496 q 241 550 301 592 q 392 654 514 654 q 533 654 549 653 z m 287 217 l 278 198 q 225 83 178 10 q 189 10 195 10 q 253 10 301 46 q 348 83 348 127 q 348 159 287 217 z"},"?":{"x_min":0,"x_max":353,"ha":353,"o":"m 157 516 l 140 516 l 145 525 q 167 576 181 626 l 185 638 q 251 660 305 660 q 380 660 421 627 q 462 594 462 534 q 462 457 410 380 q 382 338 342 311 q 303 283 230 255 q 105 208 105 168 q 105 137 150 137 q 152 137 157 138 q 146 110 121 110 q 106 110 96 121 q 86 133 86 150 q 86 198 126 245 q 167 293 223 311 l 299 336 q 434 380 434 491 q 434 598 288 598 q 230 598 200 579 q 181 567 160 522 q 159 520 157 516 z m 106 56 q 129 56 129 33 q 129 21 119 10 q 109 0 96 0 q 73 0 73 22 q 73 36 83 46 q 93 56 106 56 z"},"<":{"x_min":0,"x_max":500,"ha":500,"o":"m 456 609 l 456 576 l 134 366 l 456 151 l 456 62 l 43 337 l 43 343 z"},"'":{"x_min":0,"x_max":92,"ha":92,"o":"m 253 656 q 236 623 218 583 l 190 523 l 184 511 l 171 511 q 166 511 151 510 q 164 537 180 582 q 184 592 198 630 l 207 654 l 216 654 q 231 654 253 656 z"},"=":{"x_min":0,"x_max":427,"ha":427,"o":"m 464 367 l 453 340 l 119 340 l 130 367 z m 417 233 l 406 206 l 72 206 l 83 233 z"},"a":{"x_min":0,"x_max":375,"ha":375,"o":"m 332 75 l 341 62 q 290 23 201 1 q 203 51 259 171 q 196 97 129 48 q 62 0 23 0 q -11 0 -11 43 q -11 117 55 202 q 121 288 221 343 q 333 406 444 406 q 460 406 460 395 q 460 385 445 357 q 412 363 381 363 q 232 363 125 248 q 45 163 45 79 q 45 40 74 40 q 99 40 145 82 q 190 125 227 180 q 276 257 294 340 q 315 328 315 293 q 315 246 268 185 q 291 187 326 198 l 322 190 q 275 86 275 68 q 275 54 289 55 q 301 56 332 75 z"},"L":{"x_min":0,"x_max":909,"ha":909,"o":"m 306 347 l 295 333 q 241 264 199 220 q 242 244 299 244 q 362 244 449 211 l 583 157 l 721 101 q 808 65 828 65 q 850 65 884 97 l 896 84 q 853 45 812 -4 q 737 21 582 88 q 297 209 240 209 q 211 209 191 197 q 172 185 127 139 l 119 130 l 109 146 q 167 206 242 297 l 276 339 q 277 340 285 349 q 271 351 260 351 q 182 351 135 305 q 89 259 89 182 q 89 114 143 68 q 197 21 274 21 q 329 21 399 62 l 410 48 q 325 -9 242 -9 q 163 -9 116 39 q 68 87 68 168 q 68 270 131 337 q 194 404 290 404 q 307 404 323 403 l 329 402 l 342 419 q 461 568 560 635 q 659 701 763 701 q 836 701 878 667 q 920 632 920 572 q 920 518 880 456 q 835 387 763 346 q 690 306 611 306 q 538 306 372 336 q 329 344 306 347 z m 351 400 q 390 396 457 384 q 600 359 659 359 q 749 359 816 412 q 884 464 884 535 q 884 597 842 634 q 799 671 729 671 q 641 671 536 594 q 464 541 364 416 z"},"3":{"x_min":0,"x_max":427,"ha":427,"o":"m 233 333 q 392 316 392 202 q 392 116 322 53 q 251 -9 155 -9 q 91 -9 51 16 q 10 42 10 81 q 10 99 18 123 q 29 85 71 64 q 112 43 172 43 q 256 43 311 90 q 366 138 366 210 q 366 321 180 321 q 170 321 145 319 q 172 355 192 394 q 210 393 219 393 q 307 393 372 438 q 437 484 437 545 q 437 576 413 595 q 389 615 352 615 q 302 615 265 581 q 228 547 216 490 q 194 502 194 528 q 194 574 259 605 q 335 642 411 642 q 452 642 476 621 q 500 599 500 563 q 500 497 430 440 q 381 401 302 387 q 275 382 262 373 q 250 364 236 338 z"},";":{"x_min":0,"x_max":167,"ha":167,"o":"m 47 66 q 48 57 48 52 q 48 7 21 -44 q -6 -94 -51 -132 l -45 -120 q -7 -38 -7 1 z m 73 176 q 96 176 96 154 q 96 141 86 131 q 76 121 63 121 q 40 121 40 143 q 40 156 50 166 q 60 176 73 176 z"},"J":{"x_min":0,"x_max":935,"ha":935,"o":"m 1023 668 l 1020 651 q 987 475 944 354 q 902 233 833 120 q 604 -256 332 -256 q 253 -256 179 -227 q 104 -197 55 -148 q -18 -74 -18 39 q -18 149 69 224 q 155 298 285 298 q 490 298 731 130 l 677 94 q 580 165 456 212 q 332 258 240 258 q 140 258 74 204 q 9 150 9 66 q 9 12 35 -41 q 62 -95 109 -133 q 149 -167 217 -188 q 285 -208 352 -208 q 575 -208 735 10 q 796 94 848 211 q 900 328 920 427 l 942 537 l 956 603 q 957 609 959 622 q 935 619 915 619 l 869 620 q 847 620 826 614 q 794 604 774 579 q 755 554 755 521 q 755 491 771 464 q 787 437 828 398 q 868 360 868 328 q 868 286 837 245 q 807 204 775 204 q 750 204 735 222 q 719 240 719 269 q 719 272 720 280 q 752 235 783 235 q 829 235 829 283 q 829 312 781 355 q 722 410 722 480 q 722 557 779 613 q 835 669 912 669 l 957 668 l 999 667 q 1014 667 1023 668 z"},"V":{"x_min":0,"x_max":1151,"ha":1151,"o":"m 1322 670 q 1276 567 1167 472 q 1163 416 1117 356 q 1071 296 935 170 q 839 81 771 4 l 759 -9 q 765 45 765 102 q 765 190 755 261 q 587 195 587 83 q 587 53 606 16 q 554 20 554 73 q 554 130 609 189 q 664 249 753 289 q 732 464 661 563 q 562 702 413 702 q 308 702 239 627 q 169 551 169 437 q 169 366 202 305 q 235 245 293 209 q 365 166 447 166 q 481 166 517 176 l 520 167 q 462 138 400 138 q 292 138 218 219 q 143 300 143 417 q 143 555 233 648 q 322 742 454 742 q 541 742 615 696 q 689 650 736 565 q 790 472 812 313 q 822 317 823 317 l 922 352 q 1030 389 1106 445 l 1116 453 q 1110 497 1074 534 q 1041 569 992 587 q 944 606 863 615 l 846 617 q 870 637 891 667 q 934 664 1018 664 q 1223 664 1322 670 z m 1262 629 l 1246 629 l 1152 627 l 1063 626 l 1043 626 q 1157 578 1166 495 q 1229 551 1262 629 z m 1111 425 q 1017 345 909 311 l 824 285 q 824 285 815 282 q 818 244 818 191 q 818 125 814 81 q 845 113 883 149 l 933 196 q 1024 282 1061 329 q 1098 377 1111 425 z"},"\"":{"x_min":0,"x_max":172,"ha":172,"o":"m 256 656 q 240 623 221 583 l 193 523 l 188 511 l 175 511 q 169 511 155 510 q 167 537 184 582 q 187 592 202 630 l 210 654 l 220 654 q 235 654 256 656 z m 336 656 q 320 623 301 583 l 273 523 l 268 511 l 254 511 q 250 511 235 510 q 247 537 264 582 q 267 592 282 630 l 291 654 l 300 654 q 315 654 336 656 z"},"7":{"x_min":0,"x_max":427,"ha":427,"o":"m 547 645 l 545 637 q 514 537 460 459 q 424 406 384 366 q 344 326 248 246 q 80 107 80 50 q 80 19 131 14 q 121 -9 99 -9 q 83 -9 72 3 q 62 16 62 36 q 62 93 109 164 q 157 234 235 294 l 338 374 q 474 477 506 587 l 314 587 l 286 587 q 244 587 229 574 q 214 562 198 511 l 181 511 q 210 591 222 645 z"},"S":{"x_min":0,"x_max":1205,"ha":1205,"o":"m 1166 576 l 1172 560 q 1118 535 1050 508 l 1037 503 q 1040 521 1043 545 q 1045 564 1047 580 q 1050 601 1050 614 q 1050 644 1022 644 q 976 644 914 603 q 830 549 830 478 q 830 452 852 444 q 874 436 947 436 l 953 436 q 955 451 955 457 q 955 499 943 530 q 992 518 992 444 l 992 436 l 1068 437 q 1122 437 1144 429 q 1216 403 1216 323 q 1216 214 1135 115 q 1039 -4 899 -4 q 797 -4 744 79 q 623 2 488 2 q 384 2 298 49 q 132 141 132 363 q 132 503 207 593 q 281 683 397 683 q 510 683 592 610 q 637 570 665 512 q 693 455 729 328 l 753 240 q 773 168 789 132 q 837 161 886 236 q 935 312 946 376 l 923 375 q 842 375 808 389 q 775 402 775 436 q 775 489 834 558 q 881 613 946 645 q 1010 676 1112 694 l 1129 697 l 1127 689 q 1123 667 1120 650 l 1112 604 q 1108 582 1108 576 q 1108 562 1120 562 q 1128 562 1137 565 q 1157 573 1166 576 z m 983 377 q 967 309 914 234 q 861 159 797 113 q 821 62 850 41 q 878 21 925 21 q 1019 21 1092 98 q 1164 176 1164 276 q 1164 333 1133 355 q 1101 376 1020 376 l 995 376 z m 736 96 q 712 148 701 189 l 662 333 q 616 504 550 581 q 485 659 387 659 q 285 659 228 590 q 170 522 170 401 q 170 338 194 273 q 217 209 256 162 q 306 102 377 69 q 448 36 525 36 q 629 36 736 96 z"},"}":{"x_min":0,"x_max":328,"ha":328,"o":"m 365 362 l 355 343 q 347 344 341 344 q 271 344 209 182 l 183 113 q 161 54 134 22 q 106 -10 53 -40 q 5 -67 -18 -67 q -33 -67 -33 -45 q -33 -42 -32 -37 q -20 -42 -3 -42 q 71 -42 122 95 l 147 166 q 172 231 217 282 q 263 333 316 356 q 268 382 268 450 q 268 492 301 579 q 321 631 321 667 q 321 708 270 708 q 252 708 238 704 q 255 732 273 733 q 304 735 338 704 q 372 672 372 643 q 372 622 359 586 q 308 447 308 400 q 308 363 345 363 l 354 362 z"},"Z":{"x_min":0,"x_max":994,"ha":994,"o":"m 722 428 l 720 420 q 715 404 705 368 q 695 333 691 317 l 689 309 l 671 309 q 675 332 675 348 q 675 366 663 373 q 651 380 620 380 q 595 380 520 386 l 511 386 q 505 380 504 379 l 466 340 l 417 289 l 342 212 q 340 210 329 198 q 451 280 535 280 q 631 280 777 188 q 844 228 881 228 q 920 228 941 188 q 912 199 882 199 q 837 199 798 174 q 886 116 982 39 l 979 36 q 971 29 957 18 q 938 4 926 -5 q 896 22 833 69 q 770 117 735 138 q 707 118 657 77 q 532 -27 464 -62 q 397 -96 321 -96 q 251 -96 187 -68 q 124 -41 86 6 q 39 66 39 155 q 39 286 132 365 q 226 445 380 445 q 435 445 510 438 l 532 436 l 581 486 q 490 577 463 577 q 444 577 436 513 l 416 515 l 451 693 q 582 565 638 543 l 649 554 q 715 619 751 642 q 787 665 822 665 q 836 665 846 656 q 855 646 855 633 q 855 592 800 556 q 745 521 675 516 q 644 514 625 501 q 607 488 556 434 l 572 433 q 646 427 676 427 l 715 428 z m 660 539 q 672 537 682 537 q 721 537 761 560 q 802 583 802 606 q 802 622 781 622 q 739 622 660 539 z m 717 148 q 659 187 593 212 q 527 237 486 237 q 427 237 336 182 q 245 126 161 38 l 147 53 l 165 69 q 295 184 473 375 l 486 389 l 474 390 q 376 402 318 402 q 254 402 210 386 q 166 370 127 333 q 63 270 63 186 q 63 142 83 96 q 104 51 137 20 q 207 -46 328 -46 q 409 -46 474 -20 q 538 7 625 78 q 682 123 717 148 z"},"x":{"x_min":0,"x_max":441,"ha":441,"o":"m 490 393 l 486 384 q 462 335 440 282 l 436 272 l 420 275 q 432 308 432 320 q 432 339 402 339 q 317 339 253 203 l 351 203 l 343 188 l 247 188 q 223 147 223 102 q 223 75 240 58 q 257 41 284 41 q 332 41 370 84 q 408 128 419 195 q 430 182 430 162 q 430 115 364 54 q 303 -4 247 -4 q 213 -4 193 16 q 173 37 173 71 q 173 84 177 102 q 171 97 171 96 l 139 68 q 61 -3 11 -3 q -14 -3 -30 10 q -47 22 -47 42 q -47 54 -34 75 q -18 31 34 31 q 74 31 121 75 q 167 120 198 188 l 103 188 l 111 203 l 206 203 q 208 208 208 210 l 222 244 q 241 291 241 323 q 241 365 205 365 q 157 365 117 315 q 77 266 74 203 q 61 218 61 241 q 61 293 124 349 q 188 405 247 405 q 298 405 298 347 q 298 327 290 298 l 297 305 q 360 362 390 380 q 420 398 455 398 q 471 398 490 393 z"},")":{"x_min":0,"x_max":247,"ha":247,"o":"m -27 -67 l -30 -56 q 107 21 184 195 q 219 275 240 376 q 261 477 261 563 q 261 658 238 713 l 232 728 q 231 729 230 733 q 270 712 293 656 q 316 600 316 524 q 316 339 218 169 q 120 0 -27 -67 z"},"&":{"x_min":0,"x_max":915,"ha":915,"o":"m 732 336 q 708 274 666 216 l 659 207 l 663 203 l 702 169 q 717 156 758 118 q 818 62 838 62 q 855 62 895 105 l 906 95 q 894 81 857 42 q 839 23 813 -5 l 806 -14 l 796 -4 q 712 81 625 158 l 617 165 q 534 85 434 40 q 334 -5 242 -5 q 145 -5 87 36 q 29 78 29 147 q 29 257 143 314 q 189 337 242 346 q 294 356 400 361 q 439 363 451 384 q 335 384 284 407 q 232 430 232 480 q 232 549 321 604 q 416 664 519 664 q 539 664 563 661 q 538 605 516 532 l 500 537 q 510 565 510 583 q 510 603 499 610 q 487 618 459 618 q 377 618 329 589 q 280 559 280 509 q 280 432 384 408 q 450 394 686 394 q 851 394 899 421 q 953 452 953 513 q 953 524 947 542 q 979 531 979 500 q 979 475 938 431 q 897 388 853 364 q 799 336 732 336 z m 683 336 l 659 337 l 542 340 l 407 343 q 245 343 173 308 q 84 266 84 180 q 84 114 141 75 q 198 35 293 35 q 380 35 460 73 q 540 110 598 180 q 551 226 490 256 q 429 287 386 287 q 336 287 306 256 q 277 225 277 172 q 277 159 280 136 q 250 153 250 187 q 250 235 309 281 q 368 327 429 327 q 506 327 624 235 l 633 228 q 664 269 683 336 z"},"_":{"x_min":0,"x_max":500,"ha":500,"o":"m 25 -87 l 475 -87 l 475 -125 l 25 -125 z"},"v":{"x_min":0,"x_max":321,"ha":321,"o":"m 240 394 l 400 394 q 328 167 113 49 l 63 21 l 28 2 q 25 0 19 -3 q 56 78 84 175 q 113 272 113 316 q 113 364 93 364 q 81 364 51 343 l 42 358 l 50 363 q 115 404 140 404 q 172 404 172 342 q 172 273 125 145 l 98 77 l 93 63 q 311 167 344 343 l 303 343 q 260 343 245 336 q 229 328 215 300 l 211 292 l 194 292 q 224 347 240 394 z"},"O":{"x_min":0,"x_max":902,"ha":902,"o":"m 823 668 l 779 546 q 861 522 898 480 q 936 438 936 371 q 936 240 823 132 q 753 65 655 28 q 556 -9 448 -9 q 285 -9 189 65 q 93 139 93 265 q 93 360 144 440 q 195 521 292 577 q 464 677 692 677 q 765 677 823 668 z m 770 524 q 713 384 613 307 q 512 231 386 231 l 344 231 q 332 231 321 229 q 312 227 297 220 q 301 228 302 229 l 315 256 q 332 291 373 291 l 433 291 q 470 291 505 295 q 589 307 645 363 q 702 418 743 531 q 695 542 656 542 q 551 542 480 492 q 409 442 386 354 q 375 371 375 391 q 375 464 457 512 q 539 561 662 561 q 695 561 741 555 l 751 553 l 773 626 q 684 639 617 639 q 387 639 276 538 q 222 488 191 418 q 161 348 161 274 q 161 156 240 89 q 331 14 482 14 q 647 14 759 114 q 870 214 870 363 q 870 424 843 468 q 815 513 770 524 z"},"(":{"x_min":0,"x_max":248,"ha":248,"o":"m 433 733 l 435 723 q 295 664 218 522 q 176 444 151 340 q 126 236 126 136 q 126 37 154 -66 q 69 -7 69 169 q 69 355 174 517 q 278 679 433 733 z"},"C":{"x_min":0,"x_max":765,"ha":765,"o":"m 510 321 q 534 306 534 266 q 534 203 481 127 q 387 -9 266 -9 q 178 -9 122 49 q 65 107 65 197 q 65 296 116 394 q 167 492 254 561 q 419 691 649 691 q 756 691 818 649 q 880 608 880 536 q 880 457 803 399 q 726 340 623 340 q 562 340 401 380 q 312 402 270 402 q 239 402 207 390 l 212 397 q 245 435 260 456 q 283 458 292 458 q 351 458 515 413 q 630 382 687 382 q 754 382 800 419 q 845 457 845 512 q 845 578 775 620 q 704 663 595 663 q 500 663 407 626 q 314 590 251 529 q 117 398 117 230 q 117 144 167 93 q 218 42 304 42 q 393 42 451 116 q 510 191 510 304 z"},"W":{"x_min":0,"x_max":1375,"ha":1375,"o":"m 1223 337 q 1174 266 1080 160 q 986 54 902 -23 l 903 23 q 903 162 884 294 l 882 304 l 866 285 q 854 271 823 233 q 771 172 750 146 l 629 -7 l 620 -18 q 620 125 604 310 q 598 388 591 408 q 585 429 567 429 q 556 429 532 416 l 523 432 q 530 436 531 437 l 582 465 q 598 474 630 495 l 641 501 q 670 348 670 77 q 692 103 755 181 q 798 236 874 322 l 878 328 l 876 337 q 745 337 738 228 q 725 239 725 255 q 725 292 771 331 q 816 370 866 376 q 825 504 727 576 q 629 648 497 648 q 344 648 248 559 q 152 471 152 331 q 152 200 237 113 q 323 25 451 25 q 470 25 497 30 l 500 21 q 456 5 393 5 q 268 5 186 89 q 104 172 104 300 q 104 463 225 570 q 346 676 532 676 q 685 676 785 599 q 886 522 924 376 q 1073 540 1183 611 q 1294 683 1396 683 q 1450 683 1484 654 q 1519 625 1519 580 q 1519 499 1435 430 q 1352 362 1223 337 z m 1200 368 q 1220 405 1220 431 q 1220 456 1176 458 l 1166 459 l 1166 477 l 1291 477 q 1280 428 1245 372 q 1345 390 1392 423 q 1467 476 1467 554 q 1467 595 1438 620 q 1408 645 1359 645 q 1188 645 949 376 q 1062 366 1146 366 z m 1183 333 q 1135 329 1087 329 q 1040 329 943 336 l 932 337 q 956 237 956 73 l 956 56 q 1020 116 1084 194 q 1148 272 1183 333 z"},"A":{"x_min":0,"x_max":822,"ha":822,"o":"m 647 725 l 661 712 q 641 689 634 670 q 628 650 628 610 q 628 444 702 211 q 744 83 767 83 q 778 83 803 108 l 815 97 l 810 90 q 768 45 733 3 l 723 -9 q 661 120 619 271 q 578 422 578 518 q 578 558 583 609 l 585 623 q 546 582 465 481 q 415 418 375 372 l 363 359 q 390 361 423 361 l 565 359 l 585 358 q 568 309 551 237 l 533 237 q 540 263 540 278 q 540 296 527 302 q 514 308 475 308 l 404 308 l 324 307 l 314 306 l 302 293 q 196 191 160 160 q 123 128 51 81 l 38 72 q 72 75 112 75 q 205 75 253 69 l 345 59 q 382 54 411 54 q 487 54 532 93 q 577 132 588 208 q 606 197 606 180 q 606 138 550 83 q 462 0 360 0 q 326 0 266 6 q 121 21 39 21 l -64 19 l -73 19 l -42 68 q 86 115 196 214 q 306 313 506 562 q 603 682 647 725 z"},"f":{"x_min":0,"x_max":190,"ha":190,"o":"m 275 395 l 271 380 l 191 380 l 59 5 q 40 5 33 0 q 27 -4 19 -23 q -21 -118 -49 -161 q -82 -211 -123 -242 q -165 -272 -202 -272 q -222 -272 -235 -262 q -249 -251 -249 -236 q -249 -231 -246 -222 q -220 -228 -195 -228 q -110 -228 -60 -148 q -10 -67 88 227 l 133 363 l 139 380 l 84 380 l 90 394 q 95 394 96 394 l 109 395 q 144 395 166 444 q 195 510 231 550 q 268 589 333 627 q 404 667 451 667 q 485 667 484 653 q 483 647 475 621 l 452 553 l 436 553 q 445 583 445 599 q 445 624 400 624 q 333 624 289 575 q 244 526 201 408 l 197 395 z"},"Q":{"x_min":0,"x_max":998,"ha":998,"o":"m 823 670 q 808 615 781 554 l 778 548 q 860 525 897 482 q 935 440 935 371 q 935 248 821 132 l 829 125 q 904 62 920 62 q 932 61 953 81 l 970 97 q 970 98 975 101 l 988 91 q 970 72 938 42 q 912 17 897 2 l 888 -7 l 873 7 q 806 64 770 91 q 706 44 621 18 q 535 -8 447 -8 q 281 -8 188 65 q 94 138 94 268 q 94 363 146 444 q 199 525 297 582 q 467 679 697 679 q 756 679 823 670 z m 769 526 l 763 514 q 713 423 656 371 q 598 320 513 291 q 669 247 792 152 q 828 194 849 250 q 870 306 870 359 q 870 423 844 467 q 817 511 769 526 z m 763 628 q 701 639 623 639 q 409 639 299 556 q 233 507 197 433 q 160 359 160 276 q 160 154 247 85 q 333 15 484 15 q 643 15 749 106 q 659 175 562 214 q 466 253 390 253 q 356 253 327 247 q 358 282 375 309 l 383 308 q 409 306 427 306 q 648 306 737 534 q 692 543 650 543 q 549 543 476 490 q 403 438 385 353 q 374 369 374 392 q 374 464 457 513 q 540 562 663 562 q 697 562 745 556 q 757 589 763 628 z"},"w":{"x_min":0,"x_max":482,"ha":482,"o":"m 398 394 l 565 394 q 514 241 357 113 l 300 66 q 284 53 261 32 l 228 3 q 227 2 218 -5 l 224 19 q 238 87 253 173 q 274 294 281 328 q 266 310 247 272 q 143 68 34 -2 q 69 84 91 168 q 113 252 113 304 q 113 351 91 351 q 81 351 61 334 l 53 348 l 63 355 q 104 382 131 403 q 172 384 172 330 q 172 258 124 119 l 116 95 q 138 125 150 147 l 193 226 q 267 359 350 408 l 278 75 q 291 85 352 133 q 488 241 510 341 l 442 341 l 424 341 q 396 341 384 318 l 374 296 q 373 294 370 289 l 353 289 z"},"-":{"x_min":0,"x_max":152,"ha":152,"o":"m 30 228 l 96 228 l 116 228 q 155 228 181 241 q 181 241 183 242 l 181 239 l 178 231 q 158 186 95 186 l 72 186 l 47 186 q 30 186 24 182 q 18 179 11 168 l 8 163 l -1 163 z"},"E":{"x_min":0,"x_max":1153,"ha":1153,"o":"m 1034 667 l 1031 659 q 1020 625 1015 604 l 1001 553 q 1001 552 999 544 l 980 544 l 982 551 q 989 578 989 590 q 989 607 978 612 q 968 617 932 617 l 916 617 l 806 617 l 804 609 q 772 482 752 442 q 713 366 643 327 q 588 296 534 279 q 596 257 690 198 q 754 157 773 146 q 824 210 824 277 q 824 379 740 416 l 912 416 l 898 363 l 817 363 q 861 321 861 259 q 861 198 805 127 l 814 122 q 879 84 913 72 q 946 59 978 59 q 1043 59 1087 104 q 1131 150 1137 224 q 1156 210 1156 183 q 1156 156 1127 120 q 1098 84 1055 57 l 998 22 q 965 1 956 1 q 932 1 870 28 q 807 54 756 85 q 704 48 619 25 q 535 2 447 2 q 281 2 186 72 q 90 142 90 263 q 90 415 247 533 q 338 602 433 632 q 528 663 647 663 l 736 663 l 815 663 l 920 664 l 1024 667 z m 754 617 l 649 617 q 518 617 452 605 q 386 593 319 559 q 238 517 192 442 q 146 368 146 281 q 146 167 230 93 q 311 22 462 22 q 615 22 729 103 q 718 109 717 110 l 611 177 q 556 211 486 234 q 416 257 363 257 q 335 257 303 250 q 326 275 340 304 q 353 308 374 308 q 393 308 411 305 l 453 299 q 473 296 492 296 q 583 296 648 366 q 712 435 754 617 z"},"s":{"x_min":0,"x_max":225,"ha":225,"o":"m 298 405 l 292 396 l 269 355 q 256 334 242 312 l 236 305 l 224 313 q 227 318 228 321 q 238 342 238 351 q 238 369 205 369 q 175 369 153 347 q 130 325 130 295 q 130 280 140 258 l 164 208 q 175 183 175 152 q 175 93 110 41 q 54 -5 11 -5 q -14 -5 -30 8 q -46 20 -46 40 q -46 62 -35 84 q -4 32 41 32 q 76 32 104 57 q 131 81 131 113 q 131 130 121 152 l 92 215 q 84 234 84 256 q 84 297 129 347 q 159 380 189 394 q 219 407 265 407 q 282 407 298 405 z"},">":{"x_min":0,"x_max":500,"ha":500,"o":"m 43 62 l 43 96 l 365 306 l 43 521 l 43 609 l 456 334 l 456 329 z"},"l":{"x_min":0,"x_max":164,"ha":164,"o":"m 292 671 q 292 612 213 433 q 76 121 73 70 q 72 48 91 49 q 105 50 141 78 l 147 83 l 156 70 q 78 1 41 1 q 12 1 12 42 q 12 74 32 131 q 52 188 129 372 l 175 483 q 217 583 217 600 q 217 613 202 613 q 197 613 176 606 q 174 605 169 604 l 164 618 l 171 621 q 256 653 292 671 z"},"8":{"x_min":0,"x_max":427,"ha":427,"o":"m 239 336 q 191 396 191 467 q 191 536 255 594 q 318 651 394 651 q 441 651 470 624 q 499 597 499 553 q 499 483 449 433 q 399 383 329 383 q 291 383 291 416 q 291 418 291 422 q 316 401 342 401 q 382 401 412 443 q 443 484 443 538 q 443 575 419 597 q 395 619 354 619 q 304 619 271 584 q 238 549 238 497 q 238 467 255 427 q 273 386 299 357 l 317 336 q 381 263 381 199 q 381 106 289 38 q 225 -9 169 -9 q 113 -9 76 26 q 40 61 40 116 q 40 194 94 254 q 148 314 239 336 z m 250 322 q 181 303 139 251 q 97 200 97 135 q 97 85 125 56 q 153 26 201 26 q 257 26 293 65 q 330 104 330 164 q 330 200 314 231 q 299 262 255 315 q 253 317 250 322 z"},"\\":{"x_min":0,"x_max":332,"ha":332,"o":"m 217 736 l 257 -69 l 240 -69 l 198 736 z"},"e":{"x_min":0,"x_max":290,"ha":290,"o":"m 277 216 q 284 203 284 192 q 284 145 219 84 q 125 -5 58 -5 q 1 -5 1 60 q 1 133 46 213 q 90 294 160 346 q 245 410 312 410 q 350 410 350 381 q 350 363 332 337 q 313 311 285 290 q 259 271 219 254 q 180 238 158 238 q 135 238 126 264 q 147 261 159 261 q 208 261 249 289 q 291 317 291 350 q 291 373 260 373 q 206 373 149 307 q 109 260 83 197 q 58 135 58 86 q 58 36 100 36 q 146 36 195 86 q 245 137 277 216 z"},"b":{"x_min":0,"x_max":369,"ha":369,"o":"m 293 671 q 288 598 160 294 l 151 274 q 204 332 267 368 q 329 405 375 405 q 419 405 419 357 q 419 304 371 232 q 322 161 246 104 q 108 0 -20 0 l -13 16 q 78 228 145 398 q 212 569 212 590 q 212 604 195 604 q 184 604 160 596 l 155 611 q 218 634 293 671 z m 53 49 q 66 47 73 47 q 181 47 266 156 q 300 200 323 250 q 346 299 346 330 q 346 364 313 364 q 258 364 179 269 q 101 173 53 49 z"},"%":{"x_min":0,"x_max":707,"ha":707,"o":"m 639 655 l 230 0 l 209 10 l 619 664 z m 576 257 q 615 257 642 229 q 669 201 669 161 q 669 104 613 45 q 557 -13 502 -13 q 458 -13 427 16 q 396 45 396 88 q 396 149 453 203 q 510 257 576 257 z m 552 225 q 503 225 466 192 q 429 159 429 115 q 429 74 454 49 q 479 24 520 24 q 566 24 599 57 q 632 90 632 136 q 632 175 610 200 q 587 225 552 225 z m 356 680 q 395 680 422 652 q 449 624 449 583 q 449 527 393 468 q 337 410 283 410 q 238 410 207 439 q 176 468 176 511 q 176 572 233 626 q 291 680 356 680 z m 333 647 q 284 647 247 615 q 209 582 209 538 q 209 497 234 472 q 259 447 300 447 q 347 447 379 480 q 412 513 412 559 q 412 598 390 623 q 368 647 333 647 z"},"m":{"x_min":0,"x_max":542,"ha":542,"o":"m 489 73 l 497 61 q 445 23 374 0 q 381 106 474 296 l 488 326 q 492 333 492 338 q 492 350 481 350 q 460 350 398 288 q 354 243 314 173 q 274 103 249 27 q 220 20 180 0 l 186 14 l 215 85 q 247 165 273 243 q 300 320 300 337 q 300 351 287 351 q 270 351 231 312 q 193 272 160 222 q 102 133 60 25 q 53 23 52 22 l 26 13 q 11 8 -6 1 q 6 26 40 108 l 78 200 q 121 305 123 331 q 124 348 108 348 q 99 348 79 339 l 73 355 q 116 372 183 413 l 193 420 q 195 409 195 401 q 195 359 144 236 q 280 409 354 409 q 376 409 376 386 q 376 351 327 229 q 383 303 449 356 q 515 410 550 410 q 570 410 570 389 q 570 375 533 296 q 444 104 444 73 q 444 60 457 60 q 466 60 489 73 z"},"#":{"x_min":0,"x_max":400,"ha":400,"o":"m 359 416 l 363 425 q 418 561 418 596 q 418 624 371 624 l 371 640 l 379 640 l 427 640 l 477 644 q 483 644 486 644 q 480 627 479 624 l 446 527 q 434 494 405 428 l 399 416 l 468 416 l 468 399 l 392 399 l 388 390 q 357 323 336 282 l 332 273 l 416 273 l 416 257 l 323 257 l 318 248 q 253 126 160 0 l 134 0 l 151 25 q 232 147 288 257 l 176 257 l 171 248 q 104 124 13 0 l -13 0 l 4 25 q 86 150 141 257 l 59 257 l 59 273 l 148 273 l 154 285 q 179 337 202 391 l 205 399 l 112 399 l 112 416 l 212 416 l 216 425 l 222 439 q 271 563 271 596 q 271 624 224 624 l 224 640 l 232 640 l 280 640 l 330 644 q 335 644 339 644 q 333 627 332 624 l 298 527 q 287 494 258 428 l 252 416 z m 352 399 l 245 399 l 241 390 q 217 336 189 282 l 185 273 l 295 273 l 301 285 q 327 338 349 391 z"},",":{"x_min":0,"x_max":167,"ha":167,"o":"m 48 66 q 48 57 48 52 q 48 7 21 -44 q -6 -94 -50 -132 l -45 -120 q -6 -38 -6 1 z"},"n":{"x_min":0,"x_max":389,"ha":389,"o":"m 334 71 l 342 58 q 284 16 204 -1 q 214 80 298 244 l 330 304 q 346 335 346 344 q 346 357 335 357 q 320 357 278 323 q 236 289 196 244 q 113 151 57 21 q 34 16 -8 -2 q 37 90 82 204 q 128 319 128 340 q 128 357 114 357 q 106 357 82 350 q 80 350 77 349 l 74 364 q 142 384 197 408 l 204 411 q 205 405 205 402 q 205 359 141 217 l 134 203 l 142 212 q 222 303 290 356 q 357 408 396 408 q 419 408 419 384 q 419 358 355 234 q 279 85 279 67 q 279 53 292 53 q 307 53 332 69 z"},"h":{"x_min":0,"x_max":376,"ha":376,"o":"m 334 69 l 343 57 q 295 31 219 3 l 207 -1 q 212 75 312 289 q 328 322 328 334 q 328 349 317 349 q 304 349 272 324 q 240 298 209 264 q 164 213 118 145 q 72 76 50 25 q 16 21 -13 6 l -8 19 q 25 96 54 168 l 111 314 l 169 459 q 211 566 211 591 q 211 608 195 608 q 188 608 167 601 l 160 598 l 155 612 q 213 632 272 664 l 281 669 q 282 660 282 655 q 282 619 257 549 q 233 478 160 302 l 107 175 l 101 161 l 109 171 q 296 403 376 403 q 400 403 400 379 q 400 362 382 324 l 352 257 q 275 88 275 61 q 275 50 287 50 q 300 50 330 67 z"},"z":{"x_min":0,"x_max":352,"ha":352,"o":"m 137 394 l 404 396 q 400 390 399 389 l 375 354 l 354 324 q 289 229 231 186 q 173 144 89 129 q 115 111 146 80 q 187 39 222 39 q 262 39 286 75 q 311 112 311 171 q 311 198 303 229 q 335 209 335 164 q 335 123 300 66 q 256 -5 188 -5 q 132 -5 77 56 q 43 93 26 93 q 8 93 -17 53 l -35 53 q -2 106 27 163 q 51 158 71 158 q 148 158 216 202 q 283 247 347 342 q 324 344 296 344 q 181 344 153 334 q 125 324 103 272 l 99 264 l 83 264 l 87 275 q 110 325 133 382 z"},"B":{"x_min":0,"x_max":1239,"ha":1239,"o":"m 965 452 q 956 438 935 414 q 925 401 905 376 q 871 332 851 310 q 874 312 906 320 l 984 339 q 1024 349 1062 349 q 1129 349 1173 310 q 1217 271 1217 210 q 1217 125 1144 60 q 1071 -5 974 -5 q 903 -5 848 29 q 793 63 707 162 l 696 152 q 516 -6 365 -6 q 241 -6 160 72 q 79 149 79 269 q 79 399 179 475 q 258 534 354 534 q 433 534 504 478 q 549 442 663 305 q 700 260 728 229 l 739 216 q 766 240 780 257 q 709 303 709 387 q 709 438 761 438 q 729 401 729 372 q 729 343 752 325 q 775 307 811 307 q 814 307 825 308 l 828 311 q 853 338 906 406 q 960 473 976 497 l 993 521 l 1001 533 q 1003 536 1008 542 l 1025 537 q 1016 521 1016 499 q 1016 465 1045 434 q 1074 403 1105 403 q 1137 403 1160 432 q 1183 461 1183 502 q 1183 562 1141 594 q 1099 626 1021 626 q 936 626 676 593 q 559 578 502 578 q 452 578 429 594 l 432 604 q 448 659 460 709 l 478 706 q 473 685 473 671 q 473 638 541 638 q 582 638 702 654 q 939 686 1025 686 q 1117 686 1168 647 q 1219 608 1219 539 q 1219 426 1113 376 q 1073 358 1059 358 q 1028 358 965 452 z m 751 202 q 790 158 848 104 q 933 26 1011 26 q 1082 26 1134 74 q 1186 123 1186 188 q 1186 235 1155 265 q 1124 294 1074 294 q 1035 294 927 267 q 861 250 825 250 q 812 250 800 253 q 796 249 795 248 l 777 228 l 756 207 q 755 206 751 202 z m 694 175 l 690 180 q 661 212 616 268 q 505 405 441 454 q 377 502 308 502 q 225 502 168 441 q 111 379 111 288 q 111 183 198 106 q 284 29 401 29 q 537 29 694 175 z"},"K":{"x_min":0,"x_max":1243,"ha":1243,"o":"m 1267 669 l 1250 652 q 1113 518 1049 456 q 939 350 910 320 l 898 308 l 1091 120 q 1141 71 1161 71 q 1180 71 1221 112 l 1225 116 l 1238 104 q 1202 63 1129 -3 l 1120 6 q 1046 74 948 173 q 893 229 863 257 l 854 266 l 793 206 q 680 93 598 49 q 516 4 420 4 q 317 4 235 63 q 176 106 143 176 q 109 246 109 330 q 109 452 197 531 q 285 610 420 610 q 509 610 590 569 q 671 528 768 434 l 772 449 q 806 552 808 597 q 809 615 792 615 q 779 615 748 602 l 739 599 l 732 615 l 737 617 q 778 635 809 651 l 881 690 q 882 690 890 694 l 883 666 q 833 474 800 404 l 885 321 l 898 333 l 975 410 l 1044 478 q 1113 545 1160 598 l 1171 610 q 1144 612 1110 612 q 1040 612 1026 604 q 1011 595 994 543 l 991 536 l 970 536 l 974 545 q 996 608 1013 669 l 1041 669 l 1171 668 z m 841 278 l 769 350 q 726 269 664 220 q 602 171 543 171 q 508 171 484 188 q 460 204 460 228 q 460 243 472 266 q 483 200 560 200 q 673 200 746 373 q 623 492 546 536 q 469 581 384 581 q 269 581 192 501 q 133 439 133 340 q 133 229 214 150 q 317 51 458 51 q 549 51 621 91 q 693 130 806 243 z"},"R":{"x_min":0,"x_max":1116,"ha":1116,"o":"m 782 346 l 762 298 q 824 247 902 168 l 944 127 q 993 78 1008 66 q 1022 54 1032 54 q 1051 54 1086 81 l 1098 67 q 1042 20 996 -13 l 979 4 q 817 169 734 244 q 677 144 589 82 q 456 -13 330 -13 q 218 -13 148 54 q 78 121 78 227 q 78 322 133 408 q 188 495 290 559 q 384 618 519 652 q 655 685 800 685 q 945 685 1023 649 q 1101 613 1101 546 q 1101 458 983 412 q 926 390 911 346 q 877 348 839 348 q 809 348 782 346 z m 707 533 q 788 549 851 570 l 849 561 q 827 470 803 402 q 831 401 843 401 q 931 401 982 438 q 1032 474 1032 539 q 1032 659 759 659 q 454 659 285 522 q 140 404 140 247 q 140 148 205 87 q 270 25 374 25 q 429 25 488 47 q 547 70 590 107 q 650 159 702 273 q 620 347 547 347 q 482 347 440 305 q 398 263 398 198 q 398 182 403 158 q 365 179 365 216 q 365 271 443 333 q 521 395 589 395 q 641 395 689 358 l 720 335 q 723 333 727 330 q 744 369 759 420 q 774 472 774 492 q 774 520 742 520 q 731 520 711 516 z"},"T":{"x_min":0,"x_max":905,"ha":905,"o":"m 593 602 q 499 553 435 443 q 371 334 371 222 q 371 141 427 96 q 482 52 585 52 q 715 52 801 128 q 887 205 903 335 q 916 309 916 286 q 916 220 833 134 q 701 -2 562 -2 q 505 -2 451 17 q 396 36 364 67 q 310 118 310 205 q 310 282 343 361 q 375 440 434 504 q 483 559 566 609 q 442 644 374 644 q 276 644 215 583 q 153 523 153 426 q 153 390 165 345 q 119 374 119 428 q 119 502 189 582 q 290 696 412 696 q 491 696 647 648 q 658 651 660 652 l 725 674 q 811 704 903 704 q 973 704 1016 681 q 1059 658 1059 621 q 1059 575 973 552 q 920 539 896 522 l 882 526 l 836 537 q 751 558 733 563 l 613 597 q 611 597 593 602 z m 680 640 q 750 617 839 597 q 928 578 962 578 q 993 578 1014 588 q 1035 598 1035 613 q 1035 640 989 660 q 942 680 878 680 q 776 680 680 640 z"},"P":{"x_min":0,"x_max":937,"ha":937,"o":"m 567 398 l 368 104 q 444 157 512 157 q 574 157 678 114 l 771 75 q 812 59 826 59 q 853 59 890 113 l 905 104 q 901 97 900 95 l 868 49 l 836 0 q 835 -1 830 -9 q 784 2 714 34 q 618 77 565 93 q 512 109 462 109 q 410 109 374 86 q 337 62 300 5 l 286 16 l 386 167 q 326 243 326 336 q 326 415 375 473 q 424 532 489 532 q 545 532 591 477 l 594 481 l 608 507 q 626 537 626 557 q 626 566 620 575 q 629 575 630 575 l 656 576 q 663 576 685 579 l 692 580 q 681 565 649 517 q 634 494 615 467 l 607 456 q 612 450 612 449 l 641 409 q 712 311 804 311 q 861 311 907 368 q 954 425 954 497 q 954 611 793 611 q 723 611 535 596 l 394 585 q 346 581 295 581 q 202 581 168 604 l 206 741 l 223 737 l 222 729 q 215 700 215 687 q 215 663 236 654 q 257 644 310 644 q 391 644 547 657 q 724 671 794 671 q 1001 671 1001 530 q 1001 445 940 370 q 868 280 758 280 q 703 280 663 304 q 623 327 575 388 z m 552 417 q 525 455 502 471 q 480 487 455 487 q 413 487 385 454 q 356 422 356 372 q 356 304 423 224 z"},"|":{"x_min":0,"x_max":500,"ha":500,"o":"m 227 667 l 273 667 l 273 -167 l 227 -167 z"},"t":{"x_min":0,"x_max":198,"ha":198,"o":"m 277 406 l 271 392 l 202 392 l 198 383 q 189 364 148 269 q 131 230 101 163 q 65 83 65 62 q 65 42 87 42 q 113 42 158 72 l 166 59 q 136 37 99 21 q 61 5 37 5 q 0 5 0 34 q 0 55 41 149 l 92 265 q 134 363 141 380 l 146 392 l 82 392 l 89 406 l 95 406 q 137 406 152 419 q 166 433 191 494 q 198 493 201 493 q 224 493 247 499 q 242 485 228 453 l 213 417 l 208 406 z"},"M":{"x_min":0,"x_max":1355,"ha":1355,"o":"m 1549 678 l 1510 549 l 1492 552 l 1495 562 q 1498 574 1498 582 q 1498 607 1458 607 q 1404 607 1356 553 q 1308 499 1282 410 q 1267 358 1244 235 q 1222 112 1222 81 q 1222 56 1244 56 q 1260 56 1290 70 l 1298 55 q 1277 46 1223 25 q 1182 10 1151 -4 q 1151 40 1172 158 q 1192 277 1220 390 l 1202 368 q 1181 341 1136 285 l 1029 153 l 921 19 l 910 5 l 898 14 q 915 47 915 80 q 915 134 890 247 l 875 312 q 874 313 872 323 q 756 167 631 84 q 507 1 389 1 q 312 1 242 35 q 173 69 134 126 q 88 191 88 280 q 88 395 167 466 q 246 537 373 537 q 446 537 506 509 q 565 481 660 403 q 696 374 713 374 q 734 374 782 400 l 792 385 l 668 317 l 655 329 q 566 413 480 457 q 395 502 323 502 q 231 502 176 448 q 120 394 120 304 q 120 191 203 121 q 287 51 420 51 q 537 51 651 127 q 764 202 868 348 q 858 401 858 437 q 858 525 897 610 q 936 696 976 696 q 1015 696 1015 628 q 1015 585 992 529 q 968 472 914 385 q 919 359 936 296 q 963 188 971 110 q 983 125 987 130 l 1019 169 l 1247 452 q 1328 552 1364 588 q 1400 625 1441 647 q 1495 678 1549 678 z m 911 416 q 940 466 958 519 q 976 572 976 607 q 976 645 950 645 q 930 645 917 604 q 903 562 903 504 q 903 467 911 416 z"},"g":{"x_min":0,"x_max":376,"ha":376,"o":"m 313 176 q 251 -30 185 -125 q 141 -188 70 -233 q 0 -277 -58 -277 q -84 -277 -101 -265 q -117 -252 -117 -233 q -117 -221 -112 -208 q -70 -244 -17 -244 q 147 -244 249 155 q 184 83 125 40 q 65 -3 31 -3 q -10 -3 -10 49 q -10 109 42 186 q 95 262 176 320 q 295 405 431 405 q 461 405 461 387 q 461 379 453 359 l 451 354 q 425 358 392 358 q 297 358 232 331 q 167 304 117 244 q 85 207 65 162 q 44 117 44 86 q 44 39 75 39 q 99 39 139 74 q 180 109 216 162 q 273 245 287 320 q 307 301 307 276 q 307 234 258 167 l 264 168 l 285 171 l 306 175 z"},"j":{"x_min":0,"x_max":163,"ha":163,"o":"m 218 420 q 117 90 -35 -89 q -101 -167 -186 -221 q -271 -275 -329 -275 q -355 -275 -374 -261 q -392 -248 -392 -228 q -392 -220 -389 -210 q -349 -237 -306 -237 q -219 -237 -141 -168 q -62 -99 11 42 q 52 122 91 219 q 129 316 129 340 q 129 361 106 361 q 97 361 82 358 l 79 373 l 94 377 q 172 398 218 420 z m 247 542 q 270 542 270 520 q 270 507 260 497 q 250 487 237 487 q 214 487 214 509 q 214 522 224 532 q 234 542 247 542 z"},"i":{"x_min":0,"x_max":178,"ha":178,"o":"m 204 417 l 204 412 q 204 366 144 230 l 107 148 q 79 83 78 68 q 77 53 94 54 q 104 54 126 64 l 133 50 q 56 13 10 -2 q 13 43 25 82 q 38 121 79 211 q 132 326 133 346 q 134 361 120 361 q 114 361 104 357 l 83 350 q 81 350 74 347 l 69 362 l 79 366 q 133 386 189 411 z m 232 542 q 255 542 255 520 q 255 507 245 497 q 235 487 222 487 q 199 487 199 509 q 199 522 209 532 q 219 542 232 542 z"},"y":{"x_min":0,"x_max":382,"ha":382,"o":"m 163 396 q 170 375 170 346 q 170 286 142 175 q 219 277 286 334 q 353 392 393 392 q 421 392 421 344 q 421 224 280 74 q 216 6 160 -26 q 104 -59 31 -70 q -32 -80 -60 -99 q -88 -119 -88 -153 q -88 -180 -61 -196 q -35 -212 8 -212 q 60 -212 104 -187 q 92 -248 8 -248 q -42 -248 -74 -224 q -105 -200 -105 -162 q -105 -114 -58 -61 q -35 -36 -9 -27 q 17 -18 89 -10 q 154 -3 193 21 q 256 62 300 126 q 326 164 344 211 q 361 257 361 289 q 361 329 334 329 q 289 329 208 232 q 128 135 70 9 l 65 0 l 48 0 l 53 19 q 109 214 109 301 q 109 332 89 332 q 81 332 66 327 q 64 326 60 324 l 55 339 q 61 342 62 343 l 108 365 l 155 391 q 157 392 163 396 z"},"@":{"x_min":0,"x_max":681,"ha":681,"o":"m 512 103 l 519 97 l 514 92 q 458 27 409 1 q 359 -26 294 -26 q 196 -26 141 28 q 86 82 86 178 q 86 262 117 352 q 147 442 201 515 q 274 614 378 673 q 482 731 587 731 q 669 731 719 689 q 768 647 768 577 q 768 516 747 450 q 726 384 691 336 q 651 282 591 243 q 530 204 484 204 q 422 204 422 273 q 422 283 425 300 l 417 293 q 328 208 278 208 q 249 208 249 247 q 249 292 283 347 q 317 401 372 444 q 419 481 482 505 q 545 529 593 529 q 615 529 615 516 q 615 504 601 479 q 572 483 546 483 q 421 483 341 374 q 303 322 303 278 q 303 252 320 252 q 349 252 407 326 q 459 392 475 472 q 505 456 505 432 q 505 408 478 363 q 497 367 520 378 q 507 350 500 336 q 483 305 483 291 q 483 274 498 262 q 512 250 531 250 q 599 250 660 330 q 723 414 723 536 q 723 611 675 658 q 626 705 549 705 q 476 705 402 666 q 328 628 273 561 q 156 419 140 246 l 138 212 q 138 121 185 72 q 232 23 321 23 q 429 23 512 103 z"},".":{"x_min":0,"x_max":167,"ha":167,"o":"m 34 56 q 56 56 56 33 q 56 21 46 10 q 36 0 23 0 q 0 0 0 22 q 0 36 10 46 q 21 56 34 56 z"},"p":{"x_min":0,"x_max":315,"ha":315,"o":"m 233 491 l 204 404 q 329 404 329 306 q 329 250 301 189 q 273 128 228 82 q 162 15 113 15 q 83 15 83 40 q 83 51 89 62 q 114 46 132 46 q 177 46 217 98 q 245 133 264 183 q 283 232 283 269 q 283 354 185 354 l 180 342 q 113 167 93 116 l -41 -225 l -49 -247 q -72 -257 -98 -263 l -106 -266 l -100 -250 q -41 -116 73 206 l 77 219 l 83 220 q 108 226 120 243 q 132 261 161 335 l 168 354 l 155 354 q 117 354 83 350 l 57 282 l 43 288 l 85 399 l 94 400 l 134 402 l 179 404 q 180 404 187 405 l 217 491 z"},"X":{"x_min":0,"x_max":1201,"ha":1201,"o":"m 826 350 l 829 340 q 869 212 911 117 q 934 63 958 63 q 971 63 997 81 l 1006 87 l 1017 73 l 1010 68 l 963 34 q 934 14 902 -7 q 845 88 787 283 l 782 298 l 772 285 l 714 212 q 537 -8 339 -8 q 218 -8 142 62 q 67 132 67 245 q 67 344 127 406 q 188 467 286 467 q 371 467 444 422 q 518 376 614 264 l 629 247 q 651 272 651 298 q 651 333 627 348 q 603 364 544 368 q 564 388 582 421 q 694 406 749 406 l 745 419 q 714 526 689 583 q 671 622 652 622 q 637 622 611 600 l 600 615 q 652 649 700 693 q 745 620 779 506 l 806 416 l 810 402 l 831 400 q 839 411 840 413 l 887 474 q 975 588 1056 639 q 1136 690 1228 690 q 1284 690 1317 665 q 1351 639 1351 595 q 1351 546 1316 501 q 1281 455 1218 421 q 1083 350 868 350 z m 852 399 l 866 399 q 928 396 978 396 q 1127 396 1216 443 q 1305 490 1305 568 q 1305 607 1275 630 q 1245 652 1193 652 q 1111 652 1039 601 q 967 549 865 417 z m 766 353 l 757 353 l 718 355 q 686 357 649 360 q 671 328 671 303 q 671 254 598 190 l 589 200 q 480 330 405 383 q 330 436 254 436 q 183 436 138 391 q 93 346 93 274 q 93 172 168 107 q 244 41 361 41 q 477 41 566 100 q 656 159 767 307 l 776 320 z"},"*":{"x_min":0,"x_max":449,"ha":449,"o":"m 335 517 l 330 520 l 294 540 l 255 562 l 222 581 q 220 582 215 584 l 243 626 l 247 623 l 278 599 q 308 575 354 543 l 358 568 l 362 588 l 372 632 l 379 669 l 380 677 l 429 664 l 427 659 l 413 622 q 403 594 387 544 l 385 538 q 398 540 425 543 q 446 545 470 548 q 500 552 516 553 l 518 503 l 512 503 q 454 506 419 506 l 391 506 l 381 506 l 384 500 l 401 463 l 420 422 l 436 387 l 439 380 l 392 362 l 390 368 q 374 427 355 484 l 353 491 q 340 479 335 475 l 320 461 q 311 452 287 430 q 268 413 259 405 l 253 399 l 222 439 l 227 442 q 280 477 326 511 z"},"Y":{"x_min":0,"x_max":1299,"ha":1299,"o":"m 842 289 q 775 186 729 100 q 729 94 729 92 l 726 63 l 724 38 q 723 36 723 27 l 714 23 q 687 13 674 0 q 662 -12 649 -41 q 627 -93 627 -144 q 627 -175 638 -191 q 650 -208 679 -218 l 654 -286 q 592 -263 592 -181 q 592 -115 646 -4 q 662 26 668 65 q 674 103 674 168 l 673 277 l 673 288 q 597 271 553 219 q 508 167 508 95 q 508 20 565 -35 q 554 -37 550 -37 q 519 -37 498 -8 q 478 21 478 66 q 478 150 529 218 q 579 286 670 325 q 660 428 633 487 q 601 558 539 600 q 477 642 404 642 q 298 642 229 573 q 161 503 161 396 q 161 292 225 205 q 290 119 385 96 l 385 86 q 271 86 198 164 q 125 241 125 361 q 125 495 213 584 q 301 674 434 674 q 565 674 641 589 q 718 503 732 340 q 760 343 781 343 q 808 343 851 338 l 860 352 q 983 534 1087 613 q 1190 691 1309 691 q 1370 691 1406 661 q 1441 632 1441 581 q 1441 530 1408 477 q 1375 423 1318 379 q 1183 278 990 278 q 941 278 911 281 l 854 287 q 853 288 842 289 z m 872 336 l 885 334 q 970 325 1039 325 q 1257 325 1356 438 q 1400 489 1400 545 q 1400 591 1365 621 q 1330 650 1274 650 q 1074 650 872 336 z m 820 291 l 812 292 q 771 296 757 296 q 750 296 735 294 l 735 269 q 735 204 730 141 q 737 151 738 153 l 776 216 l 814 281 q 815 282 820 291 z"},"c":{"x_min":0,"x_max":296,"ha":296,"o":"m 359 411 l 291 282 l 273 282 l 277 291 q 294 328 294 342 q 294 359 257 359 q 200 359 159 311 q 119 265 91 201 q 63 138 63 94 q 63 41 112 41 q 154 41 199 77 q 243 113 273 172 l 286 196 q 287 198 291 205 q 296 195 296 186 q 296 144 233 83 q 141 -6 65 -6 q 0 -6 0 67 q 0 130 42 203 q 85 276 155 334 q 250 412 339 412 q 345 412 359 411 z"},"!":{"x_min":0,"x_max":199,"ha":199,"o":"m 317 652 q 292 572 222 391 q 151 210 107 114 q 98 138 98 167 q 98 223 137 326 l 184 449 q 234 578 234 600 q 234 633 177 633 l 182 649 l 193 649 l 250 649 q 288 649 317 652 z m 88 56 q 110 56 110 33 q 110 21 100 10 q 90 0 78 0 q 55 0 55 22 q 55 35 65 45 q 75 56 88 56 z"},"/":{"x_min":0,"x_max":332,"ha":332,"o":"m -21 -69 l -42 -69 l 487 736 l 509 736 z"},"[":{"x_min":0,"x_max":336,"ha":336,"o":"m 331 733 q 344 733 373 733 l 410 733 l 487 734 l 502 733 l 500 728 q 497 723 497 723 l 493 717 q 492 715 490 711 l 375 711 l 354 655 l 339 614 l 309 529 q 297 497 261 398 q 238 336 214 269 q 178 167 167 138 l 135 53 q 122 18 102 -44 l 220 -44 q 217 -50 214 -56 q 211 -61 208 -66 l 195 -67 l 120 -66 l 82 -66 l 57 -65 q 53 -65 40 -66 q 60 -1 114 139 q 186 325 256 528 q 304 668 331 733 z"},"6":{"x_min":0,"x_max":427,"ha":427,"o":"m 606 627 q 412 586 292 472 q 210 395 154 294 q 98 194 98 126 q 98 82 124 54 q 149 27 190 27 q 250 27 297 84 q 343 142 343 217 q 343 256 323 280 q 304 304 271 304 q 195 304 143 164 q 138 179 138 192 q 138 243 191 287 q 243 331 304 331 q 347 331 373 305 q 399 280 399 238 q 399 147 318 72 q 278 35 231 13 q 185 -10 148 -10 q 101 -10 71 25 q 42 60 42 116 q 42 215 122 327 q 201 439 336 531 q 401 575 470 606 q 540 637 573 637 q 584 637 606 627 z"},"r":{"x_min":0,"x_max":250,"ha":250,"o":"m 342 404 l 325 354 q 306 358 292 358 q 235 358 171 271 q 141 230 119 181 q 97 132 65 32 l 60 16 q 28 9 -1 -1 l 4 14 l 47 128 q 108 293 108 322 q 108 337 95 337 q 88 337 62 324 l 56 339 q 125 373 179 413 q 181 404 181 397 q 181 359 147 271 l 159 285 q 272 410 320 410 q 330 410 342 404 z"},"2":{"x_min":0,"x_max":427,"ha":427,"o":"m 326 0 l -54 0 l -31 41 q 41 78 132 150 q 224 222 287 291 q 351 358 391 426 q 431 494 431 533 q 431 573 400 601 q 370 628 326 628 q 275 628 239 590 q 202 551 193 488 q 164 502 164 536 q 164 582 229 617 q 295 652 380 652 q 431 652 462 622 q 493 592 493 542 q 493 490 442 420 q 329 268 71 66 l 44 45 l 227 45 l 254 46 q 301 46 314 53 q 328 61 355 103 q 356 104 359 108 l 384 108 q 343 46 326 0 z"},"{":{"x_min":0,"x_max":328,"ha":328,"o":"m 106 343 l 120 362 q 126 362 131 362 q 201 362 256 508 l 280 571 q 300 624 326 653 q 353 682 405 709 q 452 733 475 733 q 491 733 490 711 q 490 708 489 704 q 477 708 460 708 q 386 708 340 585 l 316 521 q 295 462 251 416 q 208 371 155 350 q 200 323 200 249 q 200 209 181 156 l 161 102 q 138 37 138 9 q 138 -42 188 -42 q 204 -42 219 -37 q 201 -67 184 -67 q 153 -67 121 -35 q 88 -2 88 28 q 88 54 104 96 q 162 254 162 302 q 162 343 126 343 l 117 344 z"},"9":{"x_min":0,"x_max":427,"ha":427,"o":"m 381 500 q 400 486 400 459 q 400 418 353 364 q 301 305 242 305 q 199 305 173 333 q 147 362 147 410 q 147 504 227 578 q 298 643 373 643 q 424 643 452 606 q 480 569 480 503 q 480 309 268 123 q 199 62 132 26 q 65 -9 21 -9 q 1 -9 -5 2 q 151 35 263 143 q 335 211 381 309 q 426 406 426 491 q 426 542 398 573 q 371 605 326 605 q 272 605 233 558 q 195 510 195 442 q 195 397 217 370 q 239 343 275 343 q 320 343 349 385 q 378 428 381 500 z"}," ":{"x_min":0,"x_max":250,"ha":250,"o":""},"I":{"x_min":0,"x_max":927,"ha":927,"o":"m 561 667 l 1067 667 l 1064 655 q 964 344 827 191 q 748 103 641 52 q 534 1 426 1 q 271 1 180 84 q 88 170 88 293 q 88 392 154 455 q 219 518 322 518 q 420 518 511 457 q 558 482 612 482 q 678 482 719 435 q 760 389 760 314 q 760 250 712 164 q 606 310 473 411 q 406 348 406 248 q 406 206 418 159 q 374 191 374 249 q 374 341 458 422 q 368 489 287 489 q 212 489 163 439 q 114 389 114 313 q 114 212 193 140 q 239 97 313 73 q 387 48 471 48 q 702 48 850 248 q 943 372 1013 606 l 669 606 l 635 606 l 595 604 q 572 603 560 594 q 548 584 539 561 l 536 555 l 518 559 l 522 570 q 533 595 541 615 l 557 657 q 557 658 561 667 z m 727 239 q 740 276 740 307 q 740 370 698 415 q 655 460 596 460 q 564 460 528 445 q 628 373 727 239 z"},"H":{"x_min":0,"x_max":1430,"ha":1430,"o":"m 1056 419 q 1025 324 1025 239 q 1025 49 1196 49 q 1289 49 1347 108 q 1406 167 1406 262 q 1424 241 1424 219 q 1424 170 1364 96 q 1287 -1 1171 -1 q 1076 -1 1021 54 q 967 110 967 208 q 967 301 1011 423 l 923 430 q 884 326 817 241 q 724 124 614 61 q 503 -1 389 -1 q 261 -1 174 79 q 86 160 86 278 q 86 384 158 452 q 229 521 339 521 q 431 521 533 457 q 635 393 716 285 q 726 319 726 347 q 726 451 623 467 q 631 485 634 494 l 642 513 q 642 515 644 521 q 765 499 884 490 l 891 489 q 919 575 919 615 q 919 633 904 633 q 888 633 858 621 l 853 636 q 868 643 871 644 l 922 665 q 951 677 988 693 l 987 685 q 977 592 942 484 l 1032 476 q 1074 567 1133 623 q 1194 681 1277 715 q 1360 750 1438 750 q 1498 750 1534 726 q 1569 702 1569 662 q 1569 622 1539 576 q 1509 530 1458 494 q 1349 416 1154 416 q 1103 416 1056 419 z m 1075 472 q 1121 468 1190 468 q 1375 468 1457 518 q 1531 563 1531 628 q 1531 668 1495 694 q 1458 719 1400 719 q 1291 719 1204 653 q 1136 601 1079 479 z m 875 435 l 708 454 q 745 416 745 354 q 745 294 719 196 q 489 491 301 491 q 224 491 171 440 q 119 389 119 314 q 119 196 207 120 q 296 44 434 44 q 588 44 696 140 q 803 235 875 435 z"},"4":{"x_min":0,"x_max":427,"ha":427,"o":"m 250 628 l 248 644 q 268 643 275 643 q 318 643 359 646 q 359 609 336 557 q 304 479 251 412 q 198 345 118 277 l 110 271 q 127 270 129 270 l 267 268 l 275 267 l 305 348 q 331 420 351 450 q 370 479 410 506 q 471 548 504 548 q 519 548 519 526 q 519 524 519 519 q 505 523 486 523 q 448 523 420 486 q 393 450 357 350 l 327 265 q 338 264 343 264 q 437 264 452 337 q 470 329 470 317 q 470 294 420 264 q 371 233 310 218 l 233 9 q 212 8 203 6 l 183 1 q 181 1 177 0 l 257 218 l 230 219 l 117 220 l 29 218 q 50 246 62 273 q 152 306 227 439 q 289 548 289 604 q 289 625 250 628 z"},"~":{"x_min":0,"x_max":667,"ha":667,"o":"m 533 733 l 545 725 q 522 684 484 658 q 446 632 410 632 q 388 632 345 646 q 260 674 228 674 q 203 674 185 664 q 167 653 142 625 l 134 615 l 121 623 q 180 717 258 717 q 289 717 352 695 q 405 677 430 677 q 488 677 533 733 z"},"D":{"x_min":0,"x_max":1108,"ha":1108,"o":"m 410 720 l 428 718 q 423 689 423 678 q 423 663 441 658 q 458 653 509 653 q 543 653 603 658 l 728 668 q 792 674 846 674 q 999 674 1079 613 q 1160 551 1160 437 q 1160 352 1120 263 q 1081 175 1013 109 q 903 3 773 3 q 689 3 634 42 q 578 81 512 185 l 476 242 l 472 250 l 462 246 q 324 201 257 201 q 186 201 142 240 q 99 279 99 343 q 99 434 179 485 q 233 520 291 520 q 349 520 391 477 q 433 435 514 295 l 520 285 l 538 292 q 718 360 888 438 l 1000 489 l 1015 496 q 1017 489 1017 483 q 1017 451 981 352 q 948 261 948 244 q 948 229 967 229 q 976 229 993 234 l 999 217 l 987 213 q 947 198 892 181 l 879 176 q 880 189 884 203 l 888 220 q 895 248 923 329 q 949 404 949 416 q 949 434 934 434 q 925 434 903 424 l 868 409 l 758 361 q 641 310 541 273 l 529 270 q 599 146 663 93 q 727 39 805 39 q 875 39 940 77 q 1005 114 1047 179 q 1118 289 1118 404 q 1118 505 1047 559 q 976 614 845 614 q 798 614 732 608 l 565 592 q 522 588 476 588 q 420 588 382 602 l 384 611 q 392 637 397 660 l 408 712 z m 461 266 l 450 284 q 378 402 337 441 q 295 479 239 479 q 192 479 157 445 q 123 410 123 362 q 123 304 167 266 q 211 228 279 228 q 357 228 461 266 z"},"^":{"x_min":0,"x_max":500,"ha":500,"o":"m 524 287 l 491 287 l 280 609 l 65 287 l -23 287 l 251 700 l 257 700 z"},"0":{"x_min":0,"x_max":427,"ha":427,"o":"m 393 656 q 492 656 492 519 q 492 436 458 333 q 425 230 369 137 q 283 -5 180 -5 q 128 -5 99 36 q 69 76 69 149 q 69 309 165 475 q 215 562 274 609 q 333 656 393 656 z m 353 608 q 266 608 192 475 q 117 342 117 185 q 117 55 208 55 q 304 55 370 191 q 440 336 440 483 q 440 608 353 608 z"},"F":{"x_min":0,"x_max":1117,"ha":1117,"o":"m 1166 358 l 1130 241 l 1112 241 q 1115 249 1116 252 q 1121 270 1121 282 q 1121 298 1107 303 q 1093 307 1039 307 l 964 307 l 957 286 q 916 153 865 64 q 814 -24 738 -98 q 661 -173 562 -216 q 463 -258 366 -258 q 256 -258 168 -211 q 90 -170 46 -94 q 2 -19 2 74 q 2 197 80 271 q 157 344 286 344 q 431 344 595 211 q 649 167 746 67 l 761 52 q 786 94 786 140 q 786 211 724 258 q 662 305 561 310 q 573 331 580 357 l 926 358 q 930 371 932 377 q 953 452 967 484 q 980 517 1002 544 q 1042 596 1112 642 q 1183 689 1233 689 q 1243 689 1258 687 q 1251 649 1229 573 l 1226 561 l 1208 561 q 1216 592 1216 605 q 1216 636 1183 636 q 1130 636 1081 597 q 1055 576 1041 546 q 1026 516 1001 433 l 982 370 l 979 358 z m 912 307 l 689 309 q 741 285 773 240 q 805 195 805 146 q 805 69 748 -24 q 609 140 479 227 q 348 314 241 314 q 148 314 87 254 q 26 194 26 103 q 26 -37 135 -127 q 243 -217 410 -217 q 596 -217 725 -83 q 854 52 912 307 z"},"`":{"x_min":0,"x_max":500,"ha":500,"o":"m 292 588 q 341 574 379 527 q 417 481 426 420 q 369 515 277 545 z"},"k":{"x_min":0,"x_max":378,"ha":378,"o":"m 199 202 q 224 198 240 180 q 256 163 256 140 q 256 128 252 112 l 243 81 q 240 70 240 62 q 240 35 265 35 q 287 35 308 63 q 329 91 342 138 q 352 124 352 109 q 352 76 308 37 q 264 -2 228 -2 q 182 -2 182 46 q 182 64 194 97 q 208 134 208 151 q 208 206 133 206 q 129 206 119 206 q 112 188 98 153 l 83 116 q 67 74 53 31 l 49 21 q 27 17 -8 3 l -17 0 q 6 48 38 128 l 93 267 l 152 419 q 208 559 209 589 q 210 608 189 608 q 182 608 174 605 l 162 601 q 159 600 153 598 l 149 613 q 210 634 273 669 l 283 675 q 272 572 184 364 q 165 317 150 281 l 144 265 q 197 330 263 368 q 329 406 387 406 q 432 406 432 373 q 432 336 383 302 q 334 269 256 250 q 209 240 199 202 z m 161 255 l 168 255 q 240 255 303 285 q 365 314 365 349 q 365 376 336 376 q 303 376 248 339 q 194 301 161 255 z"},"u":{"x_min":0,"x_max":365,"ha":365,"o":"m 408 403 q 374 337 325 219 q 276 100 275 81 q 274 65 292 65 q 305 65 330 75 l 336 62 q 301 43 219 12 l 206 7 q 218 87 254 177 q 191 98 135 52 q 79 7 42 7 q 10 7 10 41 q 10 82 70 208 l 109 290 q 127 328 128 344 q 129 360 111 360 q 104 360 84 354 l 80 369 l 88 372 q 156 392 202 411 q 202 372 158 283 l 116 196 q 67 96 67 73 q 67 52 85 52 q 133 52 211 151 q 289 250 335 369 l 342 385 q 370 388 408 403 z"},"]":{"x_min":0,"x_max":400,"ha":400,"o":"m 397 711 l 287 711 q 290 716 293 723 q 295 726 298 732 l 314 732 l 377 733 l 415 733 l 443 733 l 457 732 l 451 715 q 433 660 383 528 q 297 303 241 139 q 192 -4 166 -66 q 153 -65 149 -65 l 125 -66 l 86 -66 l 10 -67 l -2 -66 q 0 -61 4 -55 q 8 -50 12 -44 l 120 -44 q 146 18 158 54 l 188 138 q 198 167 235 269 q 259 333 283 398 q 318 496 331 529 l 362 614 l 377 655 q 383 674 397 711 z"},"U":{"x_min":0,"x_max":1235,"ha":1235,"o":"m 934 212 q 908 135 869 64 q 881 65 885 65 q 918 65 971 62 q 1023 60 1037 60 q 1111 60 1160 115 q 1210 171 1210 255 q 1210 266 1208 287 q 1231 269 1231 234 q 1231 165 1166 94 q 1087 11 990 11 q 965 11 927 15 q 841 25 812 25 q 844 102 858 153 q 849 146 846 144 l 804 114 q 740 69 662 36 q 584 2 543 2 q 508 2 487 20 q 466 38 466 66 q 466 104 500 191 l 552 323 q 640 545 640 594 q 640 640 547 640 q 439 640 347 599 q 254 559 201 489 q 135 402 135 287 q 135 253 146 197 q 97 239 97 324 q 97 403 145 472 q 192 541 282 589 q 358 631 439 649 q 519 667 634 667 q 688 667 731 663 q 705 539 608 301 q 554 169 542 135 q 530 101 530 81 q 530 33 580 33 q 629 33 732 94 q 825 149 870 185 q 888 238 913 333 q 943 447 974 511 q 1005 574 1054 622 q 1124 689 1182 689 q 1232 689 1232 627 q 1232 470 947 224 z m 945 248 q 1046 328 1115 434 q 1184 540 1184 613 q 1184 660 1153 660 q 1116 660 1069 584 q 1039 536 1017 477 q 995 418 955 280 z"},"o":{"x_min":0,"x_max":332,"ha":332,"o":"m 363 360 q 337 363 320 363 q 191 363 123 264 q 96 225 78 175 q 59 124 59 90 q 59 66 73 51 q 87 35 108 35 q 159 35 221 117 q 282 198 282 266 q 282 281 274 292 q 266 302 255 302 q 216 302 180 224 q 178 234 178 241 q 178 271 215 305 q 253 338 287 338 q 309 338 325 320 q 340 301 340 275 q 340 187 228 87 q 131 1 67 1 q 39 1 21 21 q 2 42 2 72 q 2 139 49 212 q 96 285 172 337 q 214 366 263 385 q 313 403 348 403 q 369 403 369 384 q 369 377 363 360 z"},"N":{"x_min":0,"x_max":1214,"ha":1214,"o":"m 1426 674 l 1388 545 l 1371 549 l 1372 558 q 1376 581 1376 593 q 1376 613 1355 623 q 1334 632 1288 632 q 1157 632 1088 535 q 1019 438 991 293 q 1002 285 1008 281 q 1076 236 1094 213 q 1112 191 1112 153 q 1112 102 1081 52 q 1050 3 1017 3 q 983 3 963 38 q 943 73 943 131 q 943 189 954 242 l 939 252 l 896 282 q 835 324 751 390 l 742 397 q 706 282 661 215 q 591 113 500 56 q 410 -1 318 -1 q 209 -1 139 65 q 69 131 69 234 q 69 337 138 401 q 208 465 320 465 q 435 465 547 375 q 579 350 595 350 q 608 350 640 370 q 643 372 649 375 l 659 361 l 651 355 q 633 343 612 330 l 568 301 l 557 293 q 421 431 275 431 q 198 431 147 384 q 96 336 96 264 q 96 166 170 103 q 243 39 357 39 q 434 39 502 80 q 570 122 619 198 q 667 272 711 423 l 692 439 q 613 507 562 565 q 512 624 512 646 q 512 662 540 716 l 562 761 l 580 754 q 562 715 562 698 q 562 673 608 617 q 655 561 731 494 q 748 567 800 591 q 784 545 762 466 l 770 459 q 826 411 958 316 l 968 308 q 1026 504 1114 595 q 1202 686 1335 686 q 1374 686 1426 674 z m 978 228 q 974 199 974 171 q 974 41 1029 41 q 1049 41 1062 59 q 1076 77 1076 104 q 1076 136 1056 161 q 1036 186 978 228 z"},"+":{"x_min":0,"x_max":427,"ha":427,"o":"m 431 300 l 420 273 l 267 273 l 208 120 l 181 120 l 239 273 l 86 273 l 97 300 l 250 300 l 309 454 l 336 454 l 277 300 z"},"G":{"x_min":0,"x_max":1062,"ha":1062,"o":"m 798 470 l 1098 470 q 1022 119 818 -78 q 630 -257 405 -257 q 249 -257 139 -163 q 19 -60 19 112 q 19 236 92 313 q 165 390 284 390 q 368 390 436 344 q 505 298 568 201 l 662 56 q 673 38 676 33 q 706 -13 725 -13 q 740 -13 769 2 l 777 -14 l 768 -17 l 727 -35 q 713 -41 680 -57 l 669 -62 l 665 -55 q 633 -10 595 51 l 554 117 q 471 250 411 299 q 335 362 252 362 q 164 362 109 303 q 53 245 53 152 q 53 25 136 -78 q 189 -145 271 -181 q 354 -218 450 -218 q 602 -218 726 -128 q 849 -38 931 132 q 972 218 1000 310 q 1028 402 1028 453 l 938 453 q 963 430 963 395 q 963 329 893 264 q 795 173 700 173 q 629 173 585 217 q 542 261 542 331 q 542 401 573 467 q 604 533 661 581 q 722 633 799 662 q 876 690 953 690 q 973 690 1001 688 l 969 572 l 951 572 l 953 583 q 957 599 957 610 q 957 647 880 647 q 800 647 736 611 q 674 577 636 508 q 599 439 599 360 q 599 292 636 252 q 674 212 738 212 q 808 212 859 261 q 911 311 911 377 q 911 453 812 453 l 798 453 z"},"q":{"x_min":0,"x_max":365,"ha":365,"o":"m 311 187 l 306 174 l 229 -25 q 198 -107 150 -222 l 141 -245 q 120 -251 85 -271 l 77 -275 l 86 -254 q 122 -170 139 -127 l 176 -33 q 229 103 247 152 q 102 2 33 2 q 14 2 2 17 q -11 31 -11 54 q -11 104 32 171 q 75 239 141 292 q 209 347 290 379 q 370 410 442 410 q 466 410 466 397 q 466 389 453 365 q 413 368 390 368 q 234 368 132 256 q 98 218 76 172 q 54 125 54 90 q 54 53 86 53 q 125 53 191 130 q 263 212 292 320 l 295 329 q 315 311 315 286 q 315 241 269 180 q 282 181 291 183 l 304 186 q 307 186 311 187 z"},"d":{"x_min":0,"x_max":390,"ha":390,"o":"m 513 669 q 511 637 467 526 l 431 436 l 417 400 q 446 389 449 353 q 428 359 402 361 l 398 352 l 335 192 q 292 80 292 64 q 292 51 305 51 q 318 51 350 70 q 351 71 354 73 l 364 61 q 311 24 216 -2 l 220 14 q 236 72 271 160 q 283 187 292 210 l 347 353 l 352 364 q 299 364 238 336 q 177 308 131 263 q 45 177 45 87 q 45 45 75 45 q 105 45 150 86 q 194 127 229 186 q 261 242 281 311 q 290 292 290 272 q 290 231 255 178 q 220 124 161 74 q 74 0 25 0 q -12 0 -12 46 q -12 86 14 139 q 40 192 83 240 q 205 373 366 400 l 379 434 l 415 526 q 430 566 431 581 q 432 602 410 602 q 397 602 381 596 l 375 610 l 383 613 q 463 643 513 669 z"},"1":{"x_min":0,"x_max":427,"ha":427,"o":"m 248 576 l 245 591 q 255 594 257 594 l 314 607 l 357 617 q 397 627 428 644 q 412 605 380 517 q 264 192 186 39 l 179 26 l 172 22 q 126 0 96 -4 q 131 48 178 152 q 226 256 264 363 l 314 505 q 334 560 335 573 q 336 589 320 589 q 311 589 284 583 q 259 578 248 576 z"},"5":{"x_min":0,"x_max":427,"ha":427,"o":"m 507 581 l 305 581 l 270 505 q 236 429 236 407 q 236 370 280 321 l 308 291 q 349 244 349 198 q 349 138 287 69 q 217 -9 132 -9 q 88 -9 60 11 q 32 32 32 62 q 32 86 42 110 q 60 31 163 31 q 220 31 261 66 q 302 102 302 150 q 302 188 266 231 l 220 286 q 193 317 193 348 q 193 366 212 411 q 224 440 237 474 l 305 639 l 319 640 q 406 644 492 644 l 541 643 q 538 638 538 637 l 523 613 q 522 611 510 588 z"}}}
